# xmcd
#
# Track frame offsets: 
#        150
#        21627
#        40583
#        64333
#        89533
#        104245
#        115468
#        141030
#        159766
#        188755
#        213880
#        240441
#
# Disc length: 3443 seconds
#
# Revision: 2
# Processed by: cddbd v1.5.2PL0 Copyright (c) Steve Scherf et al.
# Submitted via: ExactAudioCopy v0.95b3
#
DISCID=a60d710c
DTITLE=Eric Clapton - Journey Man
DYEAR=1989
DGENRE=
TTITLE0=Pretending
TTITLE1=Anything For Your Love
TTITLE2=Bad Love
TTITLE3=Running On Faith
TTITLE4=Hard Times
TTITLE5=Hound Dog
TTITLE6=No Alibis
TTITLE7=Run So Far
TTITLE8=Old Love
TTITLE9=Breaking Point
TTITLE10=Lead Me On
TTITLE11=Before You Accuse Me
EXTD=
EXTT0=
EXTT1=
EXTT2=
EXTT3=
EXTT4=
EXTT5=
EXTT6=
EXTT7=
EXTT8=
EXTT9=
EXTT10=
EXTT11=
PLAYORDER=
